<?xml version="1.0" encoding="UTF-8" standalone="no"?>
<svg width="31px" height="31px" viewBox="0 0 31 31" version="1.1" xmlns="http://www.w3.org/2000/svg" xmlns:xlink="http://www.w3.org/1999/xlink" xmlns:sketch="http://www.bohemiancoding.com/sketch/ns">
    <title>info</title>
    <description>Created with Sketch (http://www.bohemiancoding.com/sketch)</description>
    <defs></defs>
    <g id="Page-1" stroke="none" stroke-width="1" fill="none" fill-rule="evenodd" sketch:type="MSPage">
        <g id="info" sketch:type="MSArtboardGroup">
            <g id="Oval-1-+-i" sketch:type="MSLayerGroup" transform="translate(2.000000, 2.000000)">
                <circle id="Oval-1" stroke="#D8D8D8" stroke-width="3" sketch:type="MSShapeGroup" cx="13.5" cy="13.5" r="13.5"></circle>
                <path d="M16.9722759,7.01589969 C16.9722759,5.88334796 16.1728276,5.17272727 15.0846897,5.17272727 C13.5524138,5.17272727 12.7307586,6.39410658 12.7307586,7.43783072 C12.7307586,8.57038245 13.5302069,9.28100313 14.6183448,9.28100313 C16.1506207,9.28100313 16.9722759,8.05962382 16.9722759,7.01589969 Z M15.8397241,12.52321 C15.8397241,11.3462445 14.9070345,10.5245893 13.5968276,10.5245893 C11.6870345,10.5245893 10.3990345,11.9458307 9.33310345,14.4774169 L10.5544828,14.9215549 C11.1318621,13.5891411 11.6204138,12.7896928 11.997931,12.7896928 C12.1533793,12.7896928 12.3088276,12.8785204 12.3088276,13.1894169 C12.3088276,14.1443135 10.4656552,17.6085893 10.4656552,19.2296928 C10.4656552,20.6287273 11.4871724,21.5170031 12.9306207,21.5170031 C14.796,21.5170031 16.2172414,20.051348 17.1055172,17.5863824 L15.8841379,17.1422445 C15.1291034,18.96321 14.7071724,19.2518997 14.3518621,19.2518997 C14.1742069,19.2518997 13.9965517,19.1630721 13.9965517,18.8299687 C13.9965517,17.7862445 15.8397241,14.3663824 15.8397241,12.52321 Z" id="i" fill="#D8D8D8" sketch:type="MSShapeGroup"></path>
            </g>
        </g>
    </g>
</svg>